<svg xmlns="http://www.w3.org/2000/svg" width="1184.088" height="275.001" viewBox="0 0 1184.088 275.001"><g fill="#00a7f6" transform="translate(.002)"><path d="M1010.94 42.17a53.84 53.84 0 0 1 29.15 8.24c.21.11.39.24.58.36a57 57 0 0 1 9.7 7.52l.27.27a59.3 59.3 0 0 1 8.75 11.26A51.4 51.4 0 0 1 1065.1 83a.3.3 0 0 1 0 .14 56 56 0 0 1 2.07 13.55v107.08a15.81 15.81 0 0 0 31.62 0V96.11a16 16 0 0 0-.06-1.74q-1.27-33.84-25.56-58.17a85.4 85.4 0 0 0-32.52-20.83 86.8 86.8 0 0 0-27.49-4.79h-4.1a3 3 0 0 0-.43 0q-35 .63-60 25.62T923 96.22v107.55a15.81 15.81 0 1 0 31.61 0V98.11a54.4 54.4 0 0 1 2.672-16.845.6.6 0 0 0 .06-.18l.29-.81a50.6 50.6 0 0 1 5.78-12c.27-.41.52-.8.82-1.2A61 61 0 0 1 970.77 59l.58-.62a61 61 0 0 1 5.16-4.47c9.34-7.55 20.23-11.32 32.6-11.73q.89-.01 1.83-.01m99.35 65.55 12.22 16.37a7.17 7.17 0 0 0 10 1.47l16.54-12.28a7.17 7.17 0 0 0 1.49-10l-12.16-16.37a7.16 7.16 0 0 0-10-1.49l-16.6 12.28a7.17 7.17 0 0 0-1.5 10Z"/><path d="M1180.05 156.16c-.18-.56-.37-1.14-.58-1.71s-.42-1.17-.64-1.74c-.27-.72-.55-1.44-.83-2.13s-.61-1.48-.93-2.18-.62-1.43-1-2.13-.55-1.15-.83-1.7q-1.38-2.73-3-5.38a15.86 15.86 0 1 0-28.24 14.39 16 16 0 0 0 1.12 1.82c.06.09.11.19.17.27a5 5 0 0 1 .29.51 54.5 54.5 0 0 1 7 27.56 58.4 58.4 0 0 1-.74 9.43 53.8 53.8 0 0 1-15.59 30.05 53 53 0 0 1-25.18 14.68 4 4 0 0 1-.52.14c-.33.08-.66.19-1 .25a2 2 0 0 1-.37.08 61.7 61.7 0 0 1-25 0h-.19a52 52 0 0 1-16.9-6.91 57 57 0 0 1-10-8.06 1.6 1.6 0 0 1-.19-.18 60.6 60.6 0 0 1-6.82-8.18 53.87 53.87 0 0 1-9.49-31.3V88.79a15.81 15.81 0 1 0-31.61 0v97.84q.82 27 16.15 47.93c.26.38.53.76.81 1.12a97 97 0 0 0 8.64 9.92 92 92 0 0 0 13 10.93c.58.39 1.16.78 1.76 1.16a81 81 0 0 0 21.2 9.88c.39.13.78.23 1.17.36.66.19 1.37.38 2.06.55a91.4 91.4 0 0 0 22.73 2.79 89.7 89.7 0 0 0 22.74-2.79q22-5.64 39.18-22.86 25.67-25.64 25.66-61.91a89.3 89.3 0 0 0-4.03-27.55M36.76 72.58h12.12a3.47 3.47 0 0 0 2.57-1 3.3 3.3 0 0 0 1-2.41V57a3.48 3.48 0 0 0-1-2.56 3.28 3.28 0 0 0-2.41-1H36.76a3.7 3.7 0 0 0-2.64 1A3.33 3.33 0 0 0 33 57v12.16a3.25 3.25 0 0 0 1 2.41 3.64 3.64 0 0 0 2.76 1.01M143.07 147a5.4 5.4 0 0 0 2.56-1.86 7.6 7.6 0 0 0 1-2.65c.31-2.79.49-6.45.55-11s.08-10.08.08-16.71V100.4q0-3.41-.08-7.22c-.06-2.54-.13-5.47-.24-8.78a3.68 3.68 0 0 0-.93-2.1 3.22 3.22 0 0 0-2.49-.86h-13.04a3 3 0 0 0-2.25.86 2.86 2.86 0 0 0-.86 2.1q.31 11.19.31 20.82v18.5c0 2.48-.41 4-1.24 4.43a12.3 12.3 0 0 1-5 .7H84.32v-44a3 3 0 0 0-.78-2.1 2.82 2.82 0 0 0-2.17-.85H67.84a3.14 3.14 0 0 0-2.17.85 2.74 2.74 0 0 0-.93 2.1v57.51q0 5.74-.16 13.36-3.57.47-6.14.63t-5.52.15q-10.41 0-16.86-2.64a22.25 22.25 0 0 1-10-7.54 28.14 28.14 0 0 1-4.66-11.89 95.7 95.7 0 0 1-1.16-15.7q0-2.17.15-6.06t.47-7.3q.3-3-2.65-3H6.61a3.07 3.07 0 0 0-2.33.7 5 5 0 0 0-.94 2.41q-.46 2.34-.85 5.44c-.26 2.08-.47 4.17-.62 6.3s-.29 4.12-.39 6-.16 3.32-.16 4.35q0 25.34 12.52 37t38.77 11.66q7.3 0 14.38-.62a86 86 0 0 0 13.75-2.33q3.27-.78 3.27-3.42c.21-2.9.31-6.3.31-10.18v-11h33.73c2.07 0 4.35 0 6.83-.08s4.9-.15 7.23-.31 4.46-.33 6.37-.54a31 31 0 0 0 4.59-.75m4.66 15.26h-10.88a3.83 3.83 0 0 0-2.56 1 3.26 3.26 0 0 0-1.17 2.57v12.43a2.93 2.93 0 0 0 1.17 2.25 3.78 3.78 0 0 0 2.56 1h10.88a3.47 3.47 0 0 0 2.57-1 3.12 3.12 0 0 0 1-2.25v-12.42a3.46 3.46 0 0 0-3.58-3.58Z"/><path d="M118.82 162.26H108.1a3.74 3.74 0 0 0-2.64 1 3.35 3.35 0 0 0-1.09 2.57v12.43a3 3 0 0 0 1.09 2.25 3.7 3.7 0 0 0 2.64 1h10.72a4.12 4.12 0 0 0 2.65-1 2.9 2.9 0 0 0 1.24-2.25v-12.42a3.26 3.26 0 0 0-1.17-2.57 4 4 0 0 0-2.72-1.01m68.54-45.07H201a2.74 2.74 0 0 0 2.1-.93 3.33 3.33 0 0 0 .85-2.33V43.52a2.6 2.6 0 0 0-3-3h-13.43q-3.11 0-3.11 3v70.41a3.34 3.34 0 0 0 .86 2.33 2.71 2.71 0 0 0 2.09.93"/><path d="M249.69 30.46h-14.14a3.2 3.2 0 0 0-3.11 3.11v90.15c0 2.48-.39 4-1.17 4.43a11.6 11.6 0 0 1-4.89.7H169a3 3 0 0 0-2.09.77 2.62 2.62 0 0 0-.86 2v14.3a2.59 2.59 0 0 0 .86 2 3 3 0 0 0 2.09.78h52.07c2.18 0 4.64 0 7.38-.08s5.39-.15 7.93-.31 4.9-.33 7.07-.54a32 32 0 0 0 5-.78 4.9 4.9 0 0 0 2.48-1.86 8.5 8.5 0 0 0 .93-2.65q.31-4 .55-8.31t.23-10.18V33.57a3.1 3.1 0 0 0-.85-2.17 2.72 2.72 0 0 0-2.1-.94m140.66 51.45h-13.53a3.14 3.14 0 0 0-2.17.85 2.74 2.74 0 0 0-.93 2.1v57.59q0 5.67-.16 13.28-3.57.47-6.14.63t-5.52.15q-10.41 0-16.86-2.64a22.2 22.2 0 0 1-10-7.54 28.14 28.14 0 0 1-4.66-11.89 95.6 95.6 0 0 1-1.17-15.7c0-1.45.06-3.47.16-6.06s.26-5 .47-7.3q.3-3-2.65-3h-11.6a3.07 3.07 0 0 0-2.33.7 5 5 0 0 0-.94 2.41q-.46 2.34-.85 5.44c-.26 2.08-.47 4.17-.62 6.3s-.29 4.12-.39 6-.16 3.32-.16 4.35q0 25.34 12.51 37t38.78 11.66q7.31 0 14.22-.62a86 86 0 0 0 13.6-2.33q3.42-.63 3.42-3.42.32-5.44.39-12.36t.08-12.51V84.86a2.92 2.92 0 0 0-2.95-3Zm-44.61-9.33h12.12a3.47 3.47 0 0 0 2.57-1 3.3 3.3 0 0 0 1-2.41V57a3.48 3.48 0 0 0-1-2.56 3.28 3.28 0 0 0-2.41-1h-12.28a3.7 3.7 0 0 0-2.64 1A3.33 3.33 0 0 0 342 57v12.16a3.25 3.25 0 0 0 1 2.41 3.64 3.64 0 0 0 2.74 1.01m132.11 3.11a27 27 0 0 0-4.43-1.09c-1.81-.31-3.76-.56-5.83-.77s-4.22-.39-6.45-.55-4.33-.23-6.29-.23q-20.06 0-30.86 10t-10.8 28.37v3.11q0 16.94 9.17 25.56t25 8.63c.93 0 2 0 3.18-.08a29 29 0 0 0 3.65-.39 34 34 0 0 0 3.58-.77 8.8 8.8 0 0 0 2.8-1.25l-.16 7.15a16.1 16.1 0 0 1-1.71 7.31 11.13 11.13 0 0 1-4.58 4.43 22.3 22.3 0 0 1-7.62 2.25 81 81 0 0 1-10.65.62h-14.11c-1.86 0-2.8.88-2.8 2.65V182a3.45 3.45 0 0 0 .47 1.94 3 3 0 0 0 2 1 13.6 13.6 0 0 0 3.42.39c1.66 0 3.47.13 5.44.24s3.86.15 5.67.15h4.12a82 82 0 0 0 15.39-1.4 32.6 32.6 0 0 0 12.9-5.36 27 27 0 0 0 8.86-11q3.25-7.06 3.26-18.41V78.64a2.67 2.67 0 0 0-.47-1.78 5.7 5.7 0 0 0-2.15-1.17m-16.94 49.58c0 2-1.12 3.16-3.34 3.58a47 47 0 0 1-8.32.62q-8.7 0-12.59-4.28t-3.88-13.13v-2q0-9 4.81-14t13.84-5a93 93 0 0 1 9.48.46Zm64.65-103.51h-10.88a5.86 5.86 0 0 1-2.33-2.76 10.5 10.5 0 0 1-.93-4.58q0-3.42 1.86-4.82c1.25-.94 3.21-1.4 5.91-1.4h5.44c1.34 0 2-.52 2-1.56V2.49q0-1.25-1.71-1.56a16.3 16.3 0 0 0-4-.77c-1.4-.11-2.52-.16-3.34-.16q-15.56 0-15.55 13.06a18.3 18.3 0 0 0 .62 4.66 14.3 14.3 0 0 0 1.87 4.2h-2.95c-1.66 0-2.49.51-2.49 1.55V28q0 1.86 2.49 1.86h23.93q2.49 0 2.49-1.86v-4.69c.06-1.03-.77-1.55-2.43-1.55m-4.04 19.43h-14a2.91 2.91 0 0 0-2.25.93 3.13 3.13 0 0 0-.86 2.18v101.18a3.4 3.4 0 0 0 .86 2.25 2.78 2.78 0 0 0 2.25 1h14a2.78 2.78 0 0 0 2.25-1 3.4 3.4 0 0 0 .86-2.25V44.3a3.13 3.13 0 0 0-.86-2.18 2.91 2.91 0 0 0-2.25-.93m87.04 40.72H595a3.1 3.1 0 0 0-2.26.85 2.85 2.85 0 0 0-.85 2.1v69.79a26 26 0 0 1-.86 7.53 7.86 7.86 0 0 1-2.72 4.12 10.1 10.1 0 0 1-4.89 1.79 59 59 0 0 1-7.39.39h-3.26c-1.76 0-2.64.78-2.64 2.33v11.5a2.64 2.64 0 0 0 2.17 2.95 42 42 0 0 0 5.29.39c2.17 0 3.67.08 4.51.08q9.78 0 16-2.72a20.25 20.25 0 0 0 9.8-9.4 28.7 28.7 0 0 0 2.95-10 101 101 0 0 0 .62-11.34V84.86a2.9 2.9 0 0 0-3-3ZM731 64.66h12.12a3.5 3.5 0 0 0 2.57-1 3.32 3.32 0 0 0 1-2.41V49.11a3.48 3.48 0 0 0-1-2.56 3.32 3.32 0 0 0-2.41-1H731a3.74 3.74 0 0 0-2.64 1 3.33 3.33 0 0 0-1.09 2.56v12.13a3.28 3.28 0 0 0 1 2.41 3.68 3.68 0 0 0 2.73 1.01"/><path d="M793.51 30.46h-14.15a2.94 2.94 0 0 0-2.17.94 3.15 3.15 0 0 0-.93 2.33v90c0 2.48-.39 4-1.17 4.43a11.6 11.6 0 0 1-4.9.7H757c-.72 0-1.58 0-2.56-.08a20 20 0 0 1-3-.39 14 14 0 0 1-2.8-.85 3.6 3.6 0 0 1-1.71-1.33V84.86a2.9 2.9 0 0 0-3-3h-13.52a3.1 3.1 0 0 0-2.26.85 2.85 2.85 0 0 0-.85 2.1v38.7a4.08 4.08 0 0 1-.94 2.88 6.25 6.25 0 0 1-2.25 1.55 9.8 9.8 0 0 1-2.87.7c-1 .1-2 .16-3 .16h-19.69V78.64a2.46 2.46 0 0 0-.55-1.78 6.7 6.7 0 0 0-2.1-1.17 27 27 0 0 0-4.35-1.09c-1.76-.31-3.68-.56-5.75-.77s-4.22-.39-6.45-.55-4.33-.23-6.29-.23q-20.05 0-30.86 10t-10.8 28.37v3.11q0 16.94 9.56 25.56t26.5 8.63h11.35v4.66a15 15 0 0 1-1.56 7.31 11 11 0 0 1-4.74 4.43 23.9 23.9 0 0 1-7.77 2.25 81 81 0 0 1-10.65.62H640c-1.86 0-2.8.88-2.8 2.65V182a3.45 3.45 0 0 0 .47 1.94 3 3 0 0 0 2 1 13.6 13.6 0 0 0 3.42.39c1.66 0 3.47.13 5.44.24s3.86.15 5.67.15h4.12a76 76 0 0 0 14.92-1.4 34.1 34.1 0 0 0 12.28-4.89 26.6 26.6 0 0 0 8.63-9.64q3.33-6.13 4.11-15.78v-5.28h17.1c1.66 0 3.44-.08 5.36-.23a44 44 0 0 0 5.75-.86A36.4 36.4 0 0 0 732 146a21.5 21.5 0 0 0 4.82-2.56 21.33 21.33 0 0 0 10.1 4.27 72 72 0 0 0 12 1h7.61c2.07 0 4.38 0 6.92-.08s5-.15 7.38-.31 4.59-.33 6.61-.54a31 31 0 0 0 4.74-.78 5.4 5.4 0 0 0 2.56-1.86 7.6 7.6 0 0 0 1-2.65c.31-2.79.52-5.88.62-9.24s.16-6.45.16-9.25V33.73a3.34 3.34 0 0 0-.85-2.33 2.73 2.73 0 0 0-2.16-.94m-114.39 99h-11.66q-8.7 0-12.59-4.28T651 112.06v-2q0-9 4.89-14t13.76-5a93 93 0 0 1 9.48.46ZM839.74 31.4a2.89 2.89 0 0 0-2.25-.94h-14a2.89 2.89 0 0 0-2.25.94 3.1 3.1 0 0 0-.86 2.17v111.91a3.4 3.4 0 0 0 .86 2.25 2.78 2.78 0 0 0 2.25 1h14a2.78 2.78 0 0 0 2.25-1 3.4 3.4 0 0 0 .86-2.25V33.57a3.1 3.1 0 0 0-.86-2.17M29.67 264.6h-3.18a1.78 1.78 0 0 0-1.18.44 1.48 1.48 0 0 0-.52 1.19v4a1.41 1.41 0 0 0 .52 1.07 1.68 1.68 0 0 0 1.18.48h3.18a1.7 1.7 0 0 0 1.19-.48 1.45 1.45 0 0 0 .52-1.07v-4a1.51 1.51 0 0 0-.52-1.19 1.8 1.8 0 0 0-1.19-.44M313.9 257a2.6 2.6 0 0 0 1.22-.89 3.6 3.6 0 0 0 .49-1.26 44 44 0 0 0 .25-4.74v-16.72c0-1.13-.06-2.54-.11-4.22a1.42 1.42 0 0 0-.37-1 1.3 1.3 0 0 0-1-.4h-3.58a1.13 1.13 0 0 0-.93.4 1.54 1.54 0 0 0-.33 1c0 1.93.08 3.7.11 5.33s0 3.21 0 4.74v9.47c0 1.28-.2 2-.6 2.29a6.1 6.1 0 0 1-2.73.37H61.79a12 12 0 0 1-1.48-.07 14 14 0 0 1-1.74-.26 7 7 0 0 1-1.57-.54 1.7 1.7 0 0 1-.93-.92v-20.35a1.4 1.4 0 0 0-.37-1 1.25 1.25 0 0 0-1-.41h-3.42a1.37 1.37 0 0 0-1 .41 1.35 1.35 0 0 0-.4 1v19.38a2 2 0 0 1-.56 1.52 3.3 3.3 0 0 1-1.33.81 7 7 0 0 1-1.7.34c-.62.05-1.15.07-1.59.07H23.83a33.2 33.2 0 0 1-9.36-1.07 12.2 12.2 0 0 1-5.41-3.07 9.77 9.77 0 0 1-2.47-4.74A28.4 28.4 0 0 1 6 236.4a24 24 0 0 1 .08-2.44c.08-.79.12-1.75.22-2.88s-.3-1.48-1.12-1.48H2.07c-.84 0-1.33.46-1.48 1.4a38 38 0 0 0-.48 3.81C0 235.92 0 237 0 238a31 31 0 0 0 1 8.18 13.37 13.37 0 0 0 3.63 6.21 17.2 17.2 0 0 0 7.17 3.93 41.5 41.5 0 0 0 11.66 1.37h18.65a44 44 0 0 0 6-.41 9.26 9.26 0 0 0 4.84-2 5.55 5.55 0 0 0 2 1.26 20 20 0 0 0 2.44.74 14.6 14.6 0 0 0 2.48.37c.82.05 1.57.08 2.26.08h245.04c.94 0 1.85-.08 2.74-.15s1.67-.15 2.37-.22a7.6 7.6 0 0 0 1.62-.36m-10.36 7.6h-2.88a1.76 1.76 0 0 0-1.22.44 1.54 1.54 0 0 0-.48 1.19v4a1.47 1.47 0 0 0 .48 1.07 1.66 1.66 0 0 0 1.22.48h2.88a1.7 1.7 0 0 0 1.19-.48 1.45 1.45 0 0 0 .52-1.07v-4a1.55 1.55 0 0 0-.49-1.19 1.74 1.74 0 0 0-1.22-.44m12.14 0h-2.89a2 2 0 0 0-1.22.44 1.44 1.44 0 0 0-.55 1.19v4a1.38 1.38 0 0 0 .55 1.07 1.83 1.83 0 0 0 1.22.48h2.89a1.68 1.68 0 0 0 1.18-.48 1.41 1.41 0 0 0 .52-1.07v-4a1.48 1.48 0 0 0-.52-1.19 1.78 1.78 0 0 0-1.18-.44m60.38-62.46h-3.62a1.4 1.4 0 0 0-1.41 1.41v45.14c0 1.28-.18 2-.55 2.29a5.9 5.9 0 0 1-2.7.37h-11.92V226a1.3 1.3 0 0 0-.22-.85 2.1 2.1 0 0 0-.89-.48 24 24 0 0 0-4.7-.85q-2.775-.255-5.73-.26-8.44 0-13 4.52t-4.58 12.28v1.85q0 7.77 4 11.62t11.47 3.85h7.4v3a9.8 9.8 0 0 1-1 4.32 6.24 6.24 0 0 1-2.55 2.59 11.5 11.5 0 0 1-4 1.26 38 38 0 0 1-5.29.34h-6.29c-.84 0-1.18.35-1.18 1v3.25a1.15 1.15 0 0 0 .22.78 1.8 1.8 0 0 0 1 .41 11 11 0 0 0 1.33.14c.64 0 1.34.09 2.11.12l2.29.07h1.89a33 33 0 0 0 7.07-.71 14.6 14.6 0 0 0 5.51-2.36 11.55 11.55 0 0 0 3.63-4.44 17.4 17.4 0 0 0 1.48-6.92v-2.81h12.7c.96 0 1.89-.08 2.77-.15l2.45-.22a8 8 0 0 0 1.7-.33 2.4 2.4 0 0 0 1.18-.89 4.2 4.2 0 0 0 .45-1.26c.09-.59.17-1.26.22-2s.08-1.5.11-2.29 0-1.56 0-2.3v-44.73a1.45 1.45 0 0 0-.37-1 1.26 1.26 0 0 0-.98-.41m-26.41 49.36h-7.33q-5 0-7.18-2.37t-2.22-7.62V240c0-3.4.95-6 2.85-7.84a10.68 10.68 0 0 1 7.73-2.74c1.24 0 2.32 0 3.26.07s1.9.13 2.89.22ZM395 202.07h-3.63a1.33 1.33 0 0 0-1 .44 1.5 1.5 0 0 0-.4 1v52.68a1.47 1.47 0 0 0 .4 1 1.3 1.3 0 0 0 1 .45H395a1.19 1.19 0 0 0 1-.45 1.54 1.54 0 0 0 .37-1v-52.64a1.56 1.56 0 0 0-.37-1 1.21 1.21 0 0 0-1-.48m64.9.07h-3.7a1.25 1.25 0 0 0-1 .41 1.4 1.4 0 0 0-.37 1v56.35c0 1.07-.06 2.25-.11 3.63a18 18 0 0 1-3.29.44c-1.16.05-2.23.08-3.22.08a23.4 23.4 0 0 1-9.06-1.45 11.47 11.47 0 0 1-5.11-4 14 14 0 0 1-2.26-5.92 49 49 0 0 1-.51-7.25 25 25 0 0 1 .14-3.07c.14-1.21.2-2.38.3-3.51s-.22-1.56-1.11-1.56h-3.18c-.69 0-1.14.47-1.33 1.41a22 22 0 0 0-.37 2.33c-.1.86-.19 1.73-.26 2.59s-.14 1.68-.19 2.44-.07 1.39-.07 1.89a36.8 36.8 0 0 0 1.11 9.43 16.5 16.5 0 0 0 3.77 7.07 17 17 0 0 0 7 4.4 33.6 33.6 0 0 0 10.92 1.52q3.25 0 6-.26a42 42 0 0 0 5.33-.85 3.4 3.4 0 0 0 1.19-.52 1.48 1.48 0 0 0 .44-1c.05-.6.09-1.4.11-2.41s.05-2.07.08-3.18 0-2.16.07-3.15 0-1.77 0-2.37v-53.08a1.45 1.45 0 0 0-.37-1 1.26 1.26 0 0 0-.95-.41m381.17.41a1.25 1.25 0 0 0-1-.41h-3.63a1.37 1.37 0 0 0-1 .41 1.35 1.35 0 0 0-.4 1v45.14c0 1.28-.19 2-.56 2.29a5.9 5.9 0 0 1-2.7.37h-6a1.6 1.6 0 0 1-.82-.15 2.8 2.8 0 0 1-.59-.74l-3-7.47-.81-1.93a40 40 0 0 0-4.59-8.47 21.1 21.1 0 0 0-5.33-5.18 18.1 18.1 0 0 0-6.14-2.59 33 33 0 0 0-7-.7 30 30 0 0 0-3.59.15 22.5 22.5 0 0 0-3.44.52 1.92 1.92 0 0 0-1.11.48 1.37 1.37 0 0 0-.29.92v3c0 .79.54 1.13 1.63 1 .83-.1 1.82-.18 3-.26s1.89-.11 2.29-.11q7 0 11 2.74a18.7 18.7 0 0 1 6.47 8.43l1.71 3.93 2.66 6.36h-50.76a12 12 0 0 1-1.55-.07 14 14 0 0 1-1.74-.26 7 7 0 0 1-1.55-.52 1.7 1.7 0 0 1-.93-.92v-46a1.4 1.4 0 0 0-.37-1 1.25 1.25 0 0 0-1-.41h-3.63a1.37 1.37 0 0 0-1 .41 1.35 1.35 0 0 0-.4 1v45.06a2 2 0 0 1-.56 1.52 3.3 3.3 0 0 1-1.37.81 7.3 7.3 0 0 1-1.7.34c-.59.05-1.13.07-1.63.07H501.12V226a1.3 1.3 0 0 0-.22-.85 2.1 2.1 0 0 0-.89-.48 24 24 0 0 0-4.7-.85q-2.775-.255-5.73-.26-8.44 0-13 4.52T472 240.4v1.85q0 7.77 4 11.62t11.47 3.85h7.4v3a9.8 9.8 0 0 1-1 4.32 6.24 6.24 0 0 1-2.55 2.59 11.5 11.5 0 0 1-4 1.26 38 38 0 0 1-5.29.34h-6.29c-.84 0-1.18.35-1.18 1v3.25a1.15 1.15 0 0 0 .22.78 1.76 1.76 0 0 0 1 .41 11 11 0 0 0 1.33.14c.64 0 1.34.09 2.11.12l2.29.07h1.89a33 33 0 0 0 7.07-.71 14.6 14.6 0 0 0 5.51-2.36 11.55 11.55 0 0 0 3.63-4.44 17.4 17.4 0 0 0 1.48-6.92v-2.81H749a24.4 24.4 0 0 0 4.62-.49 9.8 9.8 0 0 0 4.4-2 6.7 6.7 0 0 0 2 1.22 12.2 12.2 0 0 0 2.36.74 19 19 0 0 0 2.48.37q1.26.12 2.37.12h65.3c.96 0 1.89-.08 2.78-.15s1.7-.15 2.44-.22a7.8 7.8 0 0 0 1.7-.33 2.43 2.43 0 0 0 1.19-.89 4.5 4.5 0 0 0 .44-1.26c.1-.59.17-1.26.22-2s.09-1.5.11-2.29 0-1.56 0-2.3v-44.73a1.4 1.4 0 0 0-.34-1M494.9 251.5h-7.32q-5 0-7.18-2.37t-2.22-7.62V240c0-3.4.95-6 2.85-7.84a10.68 10.68 0 0 1 7.73-2.74c1.24 0 2.32 0 3.26.07s1.9.13 2.88.22Z"/></g></svg>