<svg xmlns="http://www.w3.org/2000/svg" width="468" height="98" fill="none" viewBox="0 0 468 98"><g clip-path="url(#a)"><path fill="#c6985c" d="M13.882 59.489 13.797 98H0V45.658l11.901-8.62 50.397 60.876-16.86.069zM48.84 69.07V9.786L62.637 0l-.017 85.66zm-8.65-10.695L26.527 41.51V26.737l13.678-9.735z"/><path fill="#16243d" d="M94.396 71.435h-9.362v-7.387H82.63v17.156h2.404V73.51h9.362v7.695H96.8V64.048h-2.404zm15.083-7.695c-4.266 0-8.075 2.639-8.075 8.843 0 5.262 2.692 8.947 7.889 8.947 4.266 0 8.075-2.64 8.075-8.844 0-5.262-2.692-8.947-7.889-8.947m-.186 15.716c-3.691 0-5.383-2.862-5.383-6.907s1.777-6.753 5.569-6.753 5.384 2.862 5.384 6.907-1.778 6.753-5.57 6.753m15.947-15.407h-2.404v17.156h10.716V79.08h-8.312zm14.796 0h-2.404v17.139h2.404zm10.547 0h-5.096v17.139h4.656c5.485 0 9.328-2.622 9.328-8.57 0-5.947-3.369-8.569-8.888-8.569m-.745 15.082h-1.964V66.105h2.743c4.283 0 6.331 2.005 6.331 6.513 0 5.295-2.844 6.512-7.11 6.512m19.705-15.082-6.348 16.985v.154h2.404l1.743-4.902h7.212l1.778 4.902h2.505v-.154l-6.382-16.985h-2.929zm-1.456 10.25 2.878-7.936 2.878 7.935zm18.571-2.006-4.723-8.244h-2.641v.171l6.078 10.215v6.77h2.421v-6.701l6.263-10.284v-.17h-2.488zm28.542-.857h-9.361v-7.387h-2.404v17.156h2.404V73.51h9.361v7.695h2.404V64.048H215.2zm15.084-7.695c-4.266 0-8.075 2.639-8.075 8.843 0 5.262 2.692 8.947 7.889 8.947 4.266 0 8.075-2.64 8.075-8.844 0-5.262-2.692-8.947-7.889-8.947m-.186 15.716c-3.691 0-5.384-2.862-5.384-6.907s1.778-6.753 5.57-6.753 5.383 2.862 5.383 6.907-1.777 6.753-5.569 6.753m24.242-7.831c-.829 1.645-1.642 3.307-2.065 4.627-.44-1.32-1.236-2.965-2.066-4.627l-3.809-7.576h-2.742v17.139h2.302V68.041c.254.669.661 1.423 1.118 2.349l3.995 8.02h2.319l4.08-8.02c.474-.926.779-1.697 1.016-2.383v13.18h2.353V64.048h-2.658zm15.338 1.851h6.89l.271-2.006h-7.161v-5.347h8.177v-2.074h-10.581v17.156h10.716V79.13h-8.312zm19.011-2.245-.44-.155c-2.675-.96-3.42-1.663-3.42-2.914 0-1.714 1.541-2.382 3.217-2.382 1.794 0 3.132.446 4.621 1.405l1.101-1.748c-1.829-1.25-3.691-1.697-5.705-1.697-2.878 0-5.705 1.423-5.705 4.525s2.217 3.993 4.943 4.97l.44.155c2.844 1.01 3.792 1.662 3.792 3.273 0 1.885-1.354 2.777-3.843 2.777-1.405 0-3.369-.48-4.858-1.646l-1.152 1.748c1.541 1.217 3.606 1.954 6.095 1.954 3.843 0 6.28-1.696 6.28-4.953 0-3.462-2.827-4.439-5.349-5.347zM101.066 38.117c-.762-1.628-1.693-2.982-2.658-4.49L89.08 19.453h-6.45v27.662h5.858V28.416c1.05 2.348 2.234 4.148 3.335 5.81l8.566 12.889h6.5V19.453h-5.823zm21.906-18.664-9.819 27.336v.343h6.281l2.15-6.616h10.123l2.201 6.616h6.365v-.343l-9.819-27.336zm.203 16.196 3.42-10.54 3.504 10.54zm32.961-5.176-.932-.343c-4.181-1.542-5.095-2.4-5.095-3.805s1.27-2.52 4.097-2.52c2.573 0 4.435.806 6.957 2.349l2.743-4.182c-3.115-2.142-6.67-3.12-9.666-3.12-4.893 0-10.209 2.229-10.209 7.679 0 4.919 3.369 6.667 7.923 8.45l.965.377c4.266 1.662 5.35 2.382 5.35 4.233 0 2.09-2.032 3.068-5.147 3.068-2.201 0-4.757-.634-7.669-2.52l-2.691 4.233c2.624 1.971 6.077 3.325 10.75 3.325 6.077 0 10.919-2.725 10.919-8.449s-4.182-7.267-8.312-8.792zm25.85 0-.931-.343c-4.182-1.542-5.096-2.4-5.096-3.805s1.27-2.52 4.097-2.52c2.573 0 4.435.806 6.958 2.349l2.742-4.182c-3.115-2.142-6.67-3.12-9.666-3.12-4.893 0-10.208 2.229-10.208 7.679 0 4.919 3.369 6.667 7.922 8.45l.965.377c4.266 1.662 5.35 2.382 5.35 4.233 0 2.09-2.032 3.068-5.146 3.068-2.201 0-4.757-.634-7.669-2.52l-2.692 4.233c2.624 1.971 6.078 3.325 10.75 3.325 6.077 0 10.919-2.725 10.919-8.449s-4.181-7.267-8.312-8.792zm20.67 5.005h9.904l.677-4.868h-10.581v-6.238h12.274v-4.92h-18.267v27.68h18.47v-4.953h-12.477zm37.007-3.891c-.931 1.834-1.896 3.925-2.37 5.467-.508-1.49-1.439-3.633-2.353-5.467l-6.247-12.134h-6.162v27.662h5.823V29.907c.373 1.029.931 2.263 1.863 4.148l4.807 9.65h4.605l4.723-9.65c.931-1.834 1.473-3.068 1.862-4.148v17.208h5.909V19.453h-6.163l-6.28 12.134zm39.004-12.134-9.819 27.336v.343h6.281l2.15-6.616h10.123l2.201 6.616h6.365v-.343l-9.835-27.336zm.203 16.196 3.42-10.54 3.504 10.54zm27.781-16.196h-5.993v27.679h18.385v-5.21h-12.392zm34.196 13.111c2.946-1.148 4.215-3.462 4.215-5.759 0-4.353-3.419-7.335-10.039-7.335h-9.988v27.662h10.716c6.704 0 10.412-2.948 10.412-8.107 0-2.69-1.609-5.467-5.316-6.444zm-9.836-8.33h3.928c2.658 0 4.046 1.114 4.046 3.068 0 2.554-1.981 3.377-4.639 3.377h-3.335zm4.233 18.03h-4.216v-7.01h4.385c3.199 0 4.605 1.492 4.605 3.463 0 1.97-1.101 3.547-4.758 3.547zm26.561-22.811-9.819 27.336v.343h6.281l2.15-6.616h10.123l2.201 6.616h6.365v-.343l-9.835-27.336zm.203 16.196 3.42-10.54 3.504 10.54zm40.139-5.125h-12.359V19.453h-5.992v27.679h5.992V35.649h12.359v11.483h5.992v-27.68h-5.992zm22.193-11.071-9.819 27.336v.343h6.281l2.15-6.616h10.124l2.2 6.616h6.366v-.343l-9.836-27.336zm.203 16.196 3.42-10.54 3.504 10.54zm36.127.6c3.792-1.371 5.654-4.405 5.654-8.158 0-4.834-3.369-8.621-10.834-8.621h-9.159v27.662h5.993V37.054h2.285l6.789 10.078h6.619v-.343zm-5.773-3.77h-2.573V24.32h3.199c2.861 0 4.639 1.285 4.639 3.925 0 3.153-2.116 4.233-5.282 4.233z"/></g><defs><clipPath id="a"><path fill="#fff" d="M0 0h468v98H0z"/></clipPath></defs></svg>