<svg xmlns="http://www.w3.org/2000/svg" width="277" height="58" fill="none" viewBox="0 0 277 58"><g clip-path="url(#a)"><path fill="#ff9d3d" d="m8.2 34.71-.05 22.47H0V26.64l7.03-5.03L36.8 57.13l-9.96.04zm20.65 5.59V5.71L37 0l-.01 49.98zm-5.11-6.24-8.07-9.84V15.6l8.08-5.68z"/><path fill="#fff" d="M55.76 41.68h-5.53v-4.31h-1.42v10.01h1.42v-4.49h5.53v4.49h1.42V37.37h-1.42zm8.91-4.49c-2.52 0-4.77 1.54-4.77 5.16 0 3.07 1.59 5.22 4.66 5.22 2.52 0 4.77-1.54 4.77-5.16 0-3.07-1.59-5.22-4.66-5.22m-.11 9.17c-2.18 0-3.18-1.67-3.18-4.03s1.05-3.94 3.29-3.94 3.18 1.67 3.18 4.03-1.05 3.94-3.29 3.94m9.42-8.99h-1.42v10.01h6.33v-1.24h-4.91zm8.74 0H81.3v10h1.42zm6.23 0h-3.01v10h2.75c3.24 0 5.51-1.53 5.51-5s-1.99-5-5.25-5m-.44 8.8h-1.16v-7.6h1.62c2.53 0 3.74 1.17 3.74 3.8 0 3.09-1.68 3.8-4.2 3.8m11.64-8.8-3.75 9.91v.09h1.42l1.03-2.86h4.26l1.05 2.86h1.48v-.09l-3.77-9.91h-1.73zm-.86 5.98 1.7-4.63 1.7 4.63zm10.97-1.17-2.79-4.81h-1.56v.1l3.59 5.96v3.95h1.43v-3.91l3.7-6v-.1h-1.47zm16.86-.5h-5.53v-4.31h-1.42v10.01h1.42v-4.49h5.53v4.49h1.42V37.37h-1.42zm8.91-4.49c-2.52 0-4.77 1.54-4.77 5.16 0 3.07 1.59 5.22 4.66 5.22 2.52 0 4.77-1.54 4.77-5.16 0-3.07-1.59-5.22-4.66-5.22m-.11 9.17c-2.18 0-3.18-1.67-3.18-4.03s1.05-3.94 3.29-3.94 3.18 1.67 3.18 4.03-1.05 3.94-3.29 3.94m14.32-4.57c-.49.96-.97 1.93-1.22 2.7-.26-.77-.73-1.73-1.22-2.7l-2.25-4.42h-1.62v10h1.36V39.7c.15.39.39.83.66 1.37l2.36 4.68h1.37l2.41-4.68c.28-.54.46-.99.6-1.39v7.69h1.39v-10h-1.57zm9.06 1.08h4.07l.16-1.17h-4.23v-3.12h4.83v-1.21h-6.25v10.01h6.33v-1.21h-4.91zm11.23-1.31-.26-.09c-1.58-.56-2.02-.97-2.02-1.7 0-1 .91-1.39 1.9-1.39 1.06 0 1.85.26 2.73.82l.65-1.02c-1.08-.73-2.18-.99-3.37-.99-1.7 0-3.37.83-3.37 2.64s1.31 2.33 2.92 2.9l.26.09c1.68.59 2.24.97 2.24 1.91 0 1.1-.8 1.62-2.27 1.62-.83 0-1.99-.28-2.87-.96l-.68 1.02c.91.71 2.13 1.14 3.6 1.14 2.27 0 3.71-.99 3.71-2.89 0-2.02-1.67-2.59-3.16-3.12zM59.7 22.24c-.45-.95-1-1.74-1.57-2.62l-5.51-8.27h-3.81v16.14h3.46V16.58c.62 1.37 1.32 2.42 1.97 3.39l5.06 7.52h3.84V11.35H59.7zm12.94-10.89-5.8 15.95v.2h3.71l1.27-3.86h5.98l1.3 3.86h3.76v-.2l-5.8-15.95zm.12 9.45 2.02-6.15 2.07 6.15zm19.47-3.02-.55-.2c-2.47-.9-3.01-1.4-3.01-2.22s.75-1.47 2.42-1.47c1.52 0 2.62.47 4.11 1.37l1.62-2.44C94.98 11.57 92.88 11 91.11 11c-2.89 0-6.03 1.3-6.03 4.48 0 2.87 1.99 3.89 4.68 4.93l.57.22c2.52.97 3.16 1.39 3.16 2.47 0 1.22-1.2 1.79-3.04 1.79-1.3 0-2.81-.37-4.53-1.47l-1.59 2.47c1.55 1.15 3.59 1.94 6.35 1.94 3.59 0 6.45-1.59 6.45-4.93s-2.47-4.24-4.91-5.13zm15.27 0-.55-.2c-2.47-.9-3.01-1.4-3.01-2.22s.75-1.47 2.42-1.47c1.52 0 2.62.47 4.11 1.37l1.62-2.44c-1.84-1.25-3.94-1.82-5.71-1.82-2.89 0-6.03 1.3-6.03 4.48 0 2.87 1.99 3.89 4.68 4.93l.57.22c2.52.97 3.16 1.39 3.16 2.47 0 1.22-1.2 1.79-3.04 1.79-1.3 0-2.81-.37-4.53-1.47l-1.59 2.47c1.55 1.15 3.59 1.94 6.35 1.94 3.59 0 6.45-1.59 6.45-4.93s-2.47-4.24-4.91-5.13zm12.21 2.92h5.85l.4-2.84h-6.25v-3.64h7.25v-2.87h-10.79V27.5h10.91v-2.89h-7.37zm21.86-2.27c-.55 1.07-1.12 2.29-1.4 3.19-.3-.87-.85-2.12-1.39-3.19l-3.69-7.08h-3.64v16.14h3.44V17.45c.22.6.55 1.32 1.1 2.42l2.84 5.63h2.72l2.79-5.63c.55-1.07.87-1.79 1.1-2.42v10.04h3.49V11.35h-3.64l-3.71 7.08zm23.04-7.08-5.8 15.95v.2h3.71l1.27-3.86h5.98l1.3 3.86h3.76v-.2l-5.81-15.95zm.12 9.45 2.02-6.15 2.07 6.15zm16.41-9.45h-3.54V27.5h10.86v-3.04h-7.32zm20.2 7.65c1.74-.67 2.49-2.02 2.49-3.36 0-2.54-2.02-4.28-5.93-4.28H192V27.5h6.33c3.96 0 6.15-1.72 6.15-4.73 0-1.57-.95-3.19-3.14-3.76zm-5.81-4.86h2.32c1.57 0 2.39.65 2.39 1.79 0 1.49-1.17 1.97-2.74 1.97h-1.97zm2.5 10.52h-2.49v-4.09h2.59c1.89 0 2.72.87 2.72 2.02s-.65 2.07-2.81 2.07zm15.69-13.31-5.8 15.95v.2h3.71l1.27-3.86h5.98l1.3 3.86h3.76v-.2l-5.81-15.95zm.12 9.45 2.02-6.15 2.07 6.15zm23.71-2.99h-7.3v-6.46h-3.54V27.5h3.54v-6.7h7.3v6.7h3.54V11.35h-3.54zm13.11-6.46-5.8 15.95v.2h3.71l1.27-3.86h5.98l1.3 3.86h3.76v-.2l-5.81-15.95zm.12 9.45 2.02-6.15 2.07 6.15zm21.34.35c2.24-.8 3.34-2.57 3.34-4.76 0-2.82-1.99-5.03-6.4-5.03h-5.41V27.5h3.54v-5.88h1.35l4.01 5.88h3.91v-.2zm-3.41-2.2h-1.52v-4.76h1.89c1.69 0 2.74.75 2.74 2.29 0 1.84-1.25 2.47-3.12 2.47z"/></g><defs><clipPath id="a"><path fill="#fff" d="M0 0h276.45v57.18H0z"/></clipPath></defs></svg>